<svg width="268" height="65" fill="none" xmlns="http://www.w3.org/2000/svg"><path d="M48.319 15.9c-2.867-2.067-5.334-3.567-7.4-4.5-2.067-1-4.467-1.5-7.2-1.5-5.467 0-10.167 1.4-14.1 4.2-3 2.2-5.234 5.067-6.7 8.6-1.467 3.533-2.2 7.5-2.2 11.9 0 4.2.966 7.9 2.9 11.1 1.933 3.133 4.433 5.533 7.5 7.2 3.066 1.667 6.266 2.5 9.6 2.5 3.333 0 6.2-.5 8.6-1.5 2.466-1.067 4.433-2.433 5.9-4.1 2.266-2.867 3.4-6.667 3.4-11.4 0-.667-.534-1.133-1.6-1.4-1.067-.267-2.6-.4-4.6-.4l-7.2.1c-1.934 0-3.467-.367-4.6-1.1-1.134-.733-1.7-1.667-1.7-2.8 0-1.6.533-2.767 1.6-3.5 1.066-.8 2.5-1.2 4.3-1.2 2.133 0 5 .133 8.6.4 3.6.267 6.2.4 7.8.4 2.333 0 4.2.733 5.6 2.2 1.466 1.467 2.2 3.6 2.2 6.4 0 2.6-.567 5.633-1.7 9.1-1.134 3.467-2.734 6.567-4.8 9.3-2 2.667-4.967 4.7-8.9 6.1-3.867 1.333-8.167 2-12.9 2-3.934 0-7.734-.633-11.4-1.9-3.667-1.267-6.734-3.033-9.2-5.3-3.067-2.867-5.5-6.267-7.3-10.2-1.734-4-2.6-7.967-2.6-11.9 0-5.733 1.333-11.3 4-16.7 2.733-5.467 6.4-9.7 11-12.7 2-1.333 4.8-2.433 8.4-3.3 3.6-.867 6.9-1.3 9.9-1.3 4.666 0 8.766.733 12.3 2.2 3.533 1.4 6.233 3.433 8.1 6.1.8 1.2 1.2 2.267 1.2 3.2 0 1.067-.467 2.067-1.4 3-.934.933-1.867 1.4-2.8 1.4-.4 0-.867-.067-1.4-.2-.534-.133-.934-.3-1.2-.5zM82.962 6c0 1.933-.067 4.5-.2 7.7l-.1 6.5c0 6.333.466 11.633 1.4 15.9 1.333 6 3.333 10.633 6 13.9 2.466 2.867 5.5 4.3 9.1 4.3 2.8 0 5.3-.833 7.5-2.5 2.2-1.733 3.9-3.867 5.1-6.4 2-4.133 3-9.233 3-15.3 0-3.667-.234-8-.7-13-.4-5.6-.6-9.8-.6-12.6 0-1.467.866-2.4 2.6-2.8 1.733-.467 3.533-.7 5.4-.7.666 0 1.433.433 2.3 1.3.866.867 1.3 1.8 1.3 2.8 0 2-.1 3.9-.3 5.7-.134 2-.2 3.4-.2 4.2 0 2.533.133 6.067.4 10.6.066 1.133.133 2.5.2 4.1.066 1.6.1 3.433.1 5.5 0 4.533-1.1 9.067-3.3 13.6-2.134 4.467-5.134 8.167-9 11.1-3.867 2.867-8.234 4.3-13.1 4.3-7.467 0-13.3-2.4-17.5-7.2-4.2-4.867-7.067-11.133-8.6-18.8-.867-4.4-1.434-9-1.7-13.8-.2-4.8-.3-11.233-.3-19.3 0-1.067.5-2.067 1.5-3 1.066-.933 2.2-1.4 3.4-1.4 4.2 0 6.3 1.767 6.3 5.3zm101.041 56.5a18.682 18.682 0 01-2.2-3.7c-.6-1.4-1.233-3.067-1.9-5l-1.2-3c-.6-1.667-1.3-3.1-2.1-4.3-4.2.6-7.633.9-10.3.9-1.467 0-3.1-.033-4.9-.1-1.733-.133-3.033-.2-3.9-.2-3.333-.267-6-.4-8-.4-.8 1.067-1.5 2.2-2.1 3.4-.533 1.2-1.233 3-2.1 5.4-1.2 3.467-2.233 5.933-3.1 7.4-.6 1-1.767 1.5-3.5 1.5-1.467 0-2.833-.3-4.1-.9-1.2-.667-1.8-1.567-1.8-2.7.533-2.533 1.367-5.2 2.5-8 1.2-2.867 2.9-6.667 5.1-11.4l4-9.8c2.2-5.6 4.2-10.4 6-14.4 1.867-4 4.3-8.733 7.3-14.2.4-.8 1.067-1.467 2-2 .933-.6 1.967-.9 3.1-.9 1.267 0 2.167.1 2.7.3.6.133 1.067.4 1.4.8.333.333.833 1.067 1.5 2.2a74.55 74.55 0 015.8 10.9c1.667 3.733 3.767 8.9 6.3 15.5l2.1 5.3c1.867 4.8 3.467 8.833 4.8 12.1 1.4 3.2 2.933 6.133 4.6 8.8 1.067 1.733 1.6 2.933 1.6 3.6 0 1.6-.5 2.833-1.5 3.7-.933.8-2.167 1.2-3.7 1.2-1.933 0-3.4-.667-4.4-2zm-10.3-24.2c-1.067-2.267-2.6-6.2-4.6-11.8-2.067-6-4.133-10.767-6.2-14.3-1.267 3.2-3.133 7.333-5.6 12.4-1.667 3.133-3.567 7.667-5.7 13.6 4.267.533 8.867.8 13.8.8 3.533 0 6.3-.233 8.3-.7zM261.068.8c.933 0 2.067.633 3.4 1.9 1.4 1.2 2.1 2.233 2.1 3.1 0 4.067-.133 9.633-.4 16.7a564.771 564.771 0 00-.2 6.3c-.067 2.4-.1 5.2-.1 8.4 0 10.133.6 17.6 1.8 22.4-.067 1.6-.7 2.767-1.9 3.5-1.2.667-2.4 1-3.6 1-2.667 0-4.433-.933-5.3-2.8-.8-1.867-1.2-4.533-1.2-8 0-12.867.133-24.7.4-35.5-7.667 8.533-13.633 15.7-17.9 21.5l-1.8 1.2c-1.133 1-2.067 1.5-2.8 1.5-1.733 0-3.167-.433-4.3-1.3s-2.233-2.133-3.3-3.8l-4.8-6.8c-3.333-4.667-5.767-8.2-7.3-10.6 0 6.133.3 14.467.9 25 .467 6.067.7 10.633.7 13.7 0 1.6-.4 2.967-1.2 4.1-.8 1.067-2.067 1.6-3.8 1.6-1.733 0-3.167-.333-4.3-1-1.067-.667-1.633-1.667-1.7-3 .067-1.133.1-3 .1-5.6 0-5.2-.167-11.533-.5-19l-.2-5.4-.2-7a929.8 929.8 0 01-.2-7.2c-.067-2.8-.1-5.833-.1-9.1 0-4 2.167-6 6.5-6 1.333 0 2.667.333 4 1 1.4.667 2.433 1.633 3.1 2.9.533 2.333 2.5 6.2 5.9 11.6 3.4 5.4 6.733 10.467 10 15.2 2.933-3.733 5.333-6.533 7.2-8.4 3.2-3.267 5.833-6.3 7.9-9.1 2.133-2.8 4.433-6.167 6.9-10.1.6-.8 1.467-1.467 2.6-2 1.133-.6 2.333-.9 3.6-.9z" fill="#000"/></svg>